<mxfile host="app.diagrams.net" modified="2022-05-03T14:54:13.682Z" agent="5.0 (Windows NT 10.0; Win64; x64) AppleWebKit/537.36 (KHTML, like Gecko) Chrome/101.0.4951.41 Safari/537.36 Edg/101.0.1210.32" etag="DWuVuRIQ64LZO9ceWVt0" version="17.5.0" type="github">
  <diagram id="nBlTiAQr5lRcIrWAX9Rl" name="Page-1">
    <mxGraphModel dx="1038" dy="579" grid="1" gridSize="10" guides="1" tooltips="1" connect="1" arrows="1" fold="1" page="1" pageScale="1" pageWidth="850" pageHeight="1100" math="0" shadow="0">
      <root>
        <mxCell id="0" />
        <mxCell id="1" parent="0" />
        <mxCell id="kHeKk0gD_qZ5hJ97OodY-4" value="" style="edgeStyle=orthogonalEdgeStyle;rounded=0;orthogonalLoop=1;jettySize=auto;html=1;" edge="1" parent="1" source="kHeKk0gD_qZ5hJ97OodY-1" target="kHeKk0gD_qZ5hJ97OodY-3">
          <mxGeometry relative="1" as="geometry" />
        </mxCell>
        <mxCell id="kHeKk0gD_qZ5hJ97OodY-1" value="start" style="rounded=1;whiteSpace=wrap;html=1;" vertex="1" parent="1">
          <mxGeometry x="80" y="30" width="90" height="20" as="geometry" />
        </mxCell>
        <mxCell id="kHeKk0gD_qZ5hJ97OodY-6" value="" style="edgeStyle=orthogonalEdgeStyle;rounded=0;orthogonalLoop=1;jettySize=auto;html=1;" edge="1" parent="1" source="kHeKk0gD_qZ5hJ97OodY-3" target="kHeKk0gD_qZ5hJ97OodY-5">
          <mxGeometry relative="1" as="geometry" />
        </mxCell>
        <mxCell id="kHeKk0gD_qZ5hJ97OodY-3" value="IF attack and sight rng not NA" style="rhombus;whiteSpace=wrap;html=1;" vertex="1" parent="1">
          <mxGeometry x="85" y="80" width="80" height="80" as="geometry" />
        </mxCell>
        <mxCell id="kHeKk0gD_qZ5hJ97OodY-9" value="" style="edgeStyle=orthogonalEdgeStyle;rounded=0;orthogonalLoop=1;jettySize=auto;html=1;" edge="1" parent="1" source="kHeKk0gD_qZ5hJ97OodY-5" target="kHeKk0gD_qZ5hJ97OodY-7">
          <mxGeometry relative="1" as="geometry" />
        </mxCell>
        <mxCell id="kHeKk0gD_qZ5hJ97OodY-5" value="IF locked attack rng is empty" style="rhombus;whiteSpace=wrap;html=1;" vertex="1" parent="1">
          <mxGeometry x="85" y="220" width="80" height="80" as="geometry" />
        </mxCell>
        <mxCell id="kHeKk0gD_qZ5hJ97OodY-11" value="" style="edgeStyle=orthogonalEdgeStyle;rounded=0;orthogonalLoop=1;jettySize=auto;html=1;" edge="1" parent="1" source="kHeKk0gD_qZ5hJ97OodY-7" target="kHeKk0gD_qZ5hJ97OodY-10">
          <mxGeometry relative="1" as="geometry" />
        </mxCell>
        <mxCell id="kHeKk0gD_qZ5hJ97OodY-7" value="call&amp;nbsp;searchTarget" style="rounded=1;whiteSpace=wrap;html=1;fillColor=#d5e8d4;gradientColor=#97d077;strokeColor=#82b366;" vertex="1" parent="1">
          <mxGeometry x="65" y="330" width="120" height="60" as="geometry" />
        </mxCell>
        <mxCell id="kHeKk0gD_qZ5hJ97OodY-13" value="" style="edgeStyle=orthogonalEdgeStyle;rounded=0;orthogonalLoop=1;jettySize=auto;html=1;" edge="1" parent="1" source="kHeKk0gD_qZ5hJ97OodY-10" target="kHeKk0gD_qZ5hJ97OodY-12">
          <mxGeometry relative="1" as="geometry">
            <Array as="points">
              <mxPoint x="210" y="470" />
              <mxPoint x="210" y="70" />
            </Array>
          </mxGeometry>
        </mxCell>
        <mxCell id="kHeKk0gD_qZ5hJ97OodY-10" value="IF sight rng not empty" style="rhombus;whiteSpace=wrap;html=1;" vertex="1" parent="1">
          <mxGeometry x="85" y="430" width="80" height="80" as="geometry" />
        </mxCell>
        <mxCell id="kHeKk0gD_qZ5hJ97OodY-15" value="" style="edgeStyle=orthogonalEdgeStyle;rounded=0;orthogonalLoop=1;jettySize=auto;html=1;" edge="1" parent="1" source="kHeKk0gD_qZ5hJ97OodY-12" target="kHeKk0gD_qZ5hJ97OodY-14">
          <mxGeometry relative="1" as="geometry" />
        </mxCell>
        <mxCell id="kHeKk0gD_qZ5hJ97OodY-12" value="construct truck identify filter list object" style="whiteSpace=wrap;html=1;" vertex="1" parent="1">
          <mxGeometry x="240" y="40" width="120" height="60" as="geometry" />
        </mxCell>
        <mxCell id="kHeKk0gD_qZ5hJ97OodY-17" value="" style="edgeStyle=orthogonalEdgeStyle;rounded=0;orthogonalLoop=1;jettySize=auto;html=1;" edge="1" parent="1" source="kHeKk0gD_qZ5hJ97OodY-14" target="kHeKk0gD_qZ5hJ97OodY-16">
          <mxGeometry relative="1" as="geometry" />
        </mxCell>
        <mxCell id="kHeKk0gD_qZ5hJ97OodY-14" value="call&amp;nbsp;identifyTarget" style="rounded=1;whiteSpace=wrap;html=1;fillColor=#d5e8d4;gradientColor=#97d077;strokeColor=#82b366;" vertex="1" parent="1">
          <mxGeometry x="240" y="140" width="120" height="60" as="geometry" />
        </mxCell>
        <mxCell id="kHeKk0gD_qZ5hJ97OodY-19" value="" style="edgeStyle=orthogonalEdgeStyle;rounded=0;orthogonalLoop=1;jettySize=auto;html=1;" edge="1" parent="1" source="kHeKk0gD_qZ5hJ97OodY-16" target="kHeKk0gD_qZ5hJ97OodY-18">
          <mxGeometry relative="1" as="geometry" />
        </mxCell>
        <mxCell id="kHeKk0gD_qZ5hJ97OodY-16" value="IF nearest target not empty" style="rhombus;whiteSpace=wrap;html=1;" vertex="1" parent="1">
          <mxGeometry x="260" y="230" width="80" height="80" as="geometry" />
        </mxCell>
        <mxCell id="kHeKk0gD_qZ5hJ97OodY-21" value="" style="edgeStyle=orthogonalEdgeStyle;rounded=0;orthogonalLoop=1;jettySize=auto;html=1;" edge="1" parent="1" source="kHeKk0gD_qZ5hJ97OodY-18" target="kHeKk0gD_qZ5hJ97OodY-20">
          <mxGeometry relative="1" as="geometry">
            <Array as="points">
              <mxPoint x="400" y="390" />
              <mxPoint x="400" y="70" />
            </Array>
          </mxGeometry>
        </mxCell>
        <mxCell id="kHeKk0gD_qZ5hJ97OodY-18" value="IF attack rng data not empty" style="rhombus;whiteSpace=wrap;html=1;" vertex="1" parent="1">
          <mxGeometry x="260" y="350" width="80" height="80" as="geometry" />
        </mxCell>
        <mxCell id="kHeKk0gD_qZ5hJ97OodY-23" value="" style="edgeStyle=orthogonalEdgeStyle;rounded=0;orthogonalLoop=1;jettySize=auto;html=1;" edge="1" parent="1" source="kHeKk0gD_qZ5hJ97OodY-20" target="kHeKk0gD_qZ5hJ97OodY-22">
          <mxGeometry relative="1" as="geometry" />
        </mxCell>
        <mxCell id="kHeKk0gD_qZ5hJ97OodY-20" value="IF truck doesnot lock any target" style="rhombus;whiteSpace=wrap;html=1;" vertex="1" parent="1">
          <mxGeometry x="440" y="30" width="80" height="80" as="geometry" />
        </mxCell>
        <mxCell id="kHeKk0gD_qZ5hJ97OodY-25" value="" style="edgeStyle=orthogonalEdgeStyle;rounded=0;orthogonalLoop=1;jettySize=auto;html=1;" edge="1" parent="1" source="kHeKk0gD_qZ5hJ97OodY-22" target="kHeKk0gD_qZ5hJ97OodY-24">
          <mxGeometry relative="1" as="geometry" />
        </mxCell>
        <mxCell id="kHeKk0gD_qZ5hJ97OodY-22" value="set the sight and attack range target and stop search" style="whiteSpace=wrap;html=1;" vertex="1" parent="1">
          <mxGeometry x="420" y="170" width="120" height="60" as="geometry" />
        </mxCell>
        <mxCell id="kHeKk0gD_qZ5hJ97OodY-24" value="end" style="ellipse;whiteSpace=wrap;html=1;" vertex="1" parent="1">
          <mxGeometry x="420" y="280" width="120" height="60" as="geometry" />
        </mxCell>
      </root>
    </mxGraphModel>
  </diagram>
</mxfile>
